<?xml version="1.0" standalone="no"?>
<!DOCTYPE svg PUBLIC "-//W3C//DTD SVG 20010904//EN"
 "http://www.w3.org/TR/2001/REC-SVG-20010904/DTD/svg10.dtd">
<svg version="1.0" xmlns="http://www.w3.org/2000/svg"
 width="1280.000000pt" height="1280.000000pt" viewBox="0 0 1280.000000 1280.000000"
 preserveAspectRatio="xMidYMid meet">

<g transform="translate(0.000000,1280.000000) scale(0.100000,-0.100000)"
fill="#000000" stroke="none">
<path d="M6155 10660 c-298 -17 -529 -54 -840 -135 -459 -119 -869 -304 -1285
-580 -154 -102 -265 -184 -258 -190 2 -2 64 5 139 15 171 24 403 45 779 70
162 11 334 23 381 26 l86 7 299 188 c186 116 300 183 302 175 2 -8 -12 -51
-31 -97 -52 -126 -52 -132 -16 -174 l31 -35 214 0 213 0 199 223 c256 285 399
423 418 404 7 -7 -51 -135 -189 -420 -112 -231 -111 -227 -24 -227 81 0 415
-40 552 -66 72 -14 159 -30 195 -36 80 -13 604 -5 739 12 51 6 95 9 98 6 3 -3
-72 -44 -167 -90 -95 -47 -175 -87 -177 -90 -3 -3 39 -27 94 -54 393 -198 637
-494 693 -844 20 -123 8 -324 -25 -428 -80 -249 -237 -484 -494 -740 -288
-287 -586 -486 -1057 -705 -121 -56 -218 -110 -273 -149 -122 -88 -402 -269
-562 -364 -273 -162 -603 -331 -617 -318 -3 4 55 68 130 144 119 121 235 259
225 268 -2 2 -82 -19 -178 -47 -390 -112 -788 -198 -1203 -261 l-218 -32 -37
-66 c-186 -323 -456 -815 -793 -1445 -152 -283 -438 -842 -438 -855 0 -32 258
-320 425 -473 291 -267 593 -483 912 -652 l51 -27 159 129 c224 183 660 517
1026 786 42 31 77 61 77 65 0 4 -53 15 -117 25 -160 25 -474 86 -492 97 -11 6
0 10 34 14 296 36 539 104 1104 309 l203 74 199 147 c109 81 201 151 204 155
2 5 -13 93 -35 197 -53 256 -115 599 -139 769 -38 270 -79 744 -65 766 4 7 17
1 33 -14 64 -59 105 -71 134 -39 22 24 41 100 77 297 49 270 101 443 131 433
6 -2 27 -46 48 -98 21 -52 70 -160 109 -240 55 -113 81 -155 119 -192 83 -80
162 -109 195 -70 8 9 21 45 27 80 25 132 164 501 258 685 30 59 58 107 63 107
4 0 11 -53 15 -117 29 -539 75 -918 165 -1363 72 -354 77 -373 95 -366 8 3 61
36 117 74 119 80 644 407 863 539 544 327 1135 658 1473 827 155 77 143 50
112 277 -37 270 -91 508 -170 754 -330 1023 -1026 1876 -1965 2410 -220 125
-558 274 -795 350 -136 44 -415 112 -566 139 -281 50 -689 74 -989 56z"/>
<path d="M3499 9529 c-137 -126 -312 -316 -442 -478 -100 -125 -341 -480 -332
-489 15 -16 524 219 634 293 68 46 151 125 151 144 0 16 -43 22 -213 28 -93 3
-163 9 -155 14 7 4 85 28 173 54 441 129 540 169 638 256 66 58 87 93 87 142
0 62 -40 80 -254 113 -89 13 -165 24 -169 24 -4 0 -57 -46 -118 -101z"/>
<path d="M6008 8703 l-97 -4 -79 -112 c-191 -269 -724 -1109 -711 -1121 7 -7
341 81 507 133 354 111 585 202 852 337 306 153 523 312 579 423 78 152 -65
276 -379 327 -96 16 -470 25 -672 17z"/>
<path d="M4305 8578 c-44 -4 -336 -28 -650 -53 -522 -41 -867 -74 -970 -93
-39 -7 -42 -10 -92 -107 -117 -224 -254 -585 -322 -845 -36 -142 -81 -358 -81
-394 0 -27 0 -27 58 -21 31 3 156 12 277 20 314 22 929 87 941 99 1 0 33 51
71 111 262 414 638 978 805 1208 27 38 48 71 46 75 -2 4 -39 4 -83 0z"/>
<path d="M2145 6728 c-4 -51 -5 -105 -3 -120 l3 -27 60 24 c62 25 95 55 95 85
0 42 -88 130 -131 130 -15 0 -18 -14 -24 -92z"/>
<path d="M2130 6414 c1 -212 29 -545 65 -757 23 -133 106 -467 117 -467 4 0
24 34 43 75 39 86 227 436 338 630 l75 130 -212 5 c-118 3 -205 9 -198 13 7 5
75 35 151 66 148 62 270 132 339 195 48 44 54 77 19 101 -30 19 -173 40 -412
59 -104 9 -220 19 -257 22 l-68 6 0 -78z"/>
<path d="M10445 5131 c-16 -10 -109 -65 -205 -121 -385 -227 -675 -414 -753
-484 -103 -93 -302 -340 -384 -475 -37 -62 -31 -69 -78 83 -18 56 -31 83 -39
79 -6 -4 -127 -85 -268 -180 -168 -113 -258 -180 -258 -191 0 -32 301 -976
316 -991 15 -16 360 253 540 420 498 464 885 1051 1108 1684 79 222 78 211 21
176z"/>
<path d="M2933 4781 c-23 -11 -73 -50 -110 -88 -87 -87 -213 -237 -213 -253 0
-42 371 -632 387 -616 3 2 24 91 48 198 24 106 60 260 79 341 53 217 48 322
-18 394 -41 46 -108 55 -173 24z"/>
<path d="M6945 2782 c-436 -327 -797 -602 -823 -627 l-24 -22 159 -5 c176 -7
518 6 633 22 251 37 582 99 596 113 4 4 -240 736 -246 737 -3 0 -136 -98 -295
-218z"/>
</g>
</svg>
