<svg id="splitsvg" version="1.1" xmlns="http://www.w3.org/2000/svg" xmlns:xlink="http://www.w3.org/1999/xlink" width="1380" height="860"><g id="svgg"><path id="path0" d="M0.000 200.000 L 0.000 400.000 200.000 400.000 L 400.000 400.000 400.000 200.000 L 400.000 0.000 200.000 0.000 L 0.000 0.000 0.000 200.000 M167.901 167.100 L 168.001 301.200 133.801 301.200 L 99.600 301.200 99.600 167.267 C 99.600 93.603,99.721 33.212,99.869 33.064 C 100.017 32.917,115.362 32.842,133.969 32.898 L 167.800 33.000 167.901 167.100 M301.101 167.102 L 301.201 301.204 267.101 301.102 L 233.000 301.000 232.899 167.442 C 232.825 68.712,232.917 33.742,233.250 33.339 C 233.626 32.887,239.376 32.813,267.351 32.898 L 301.000 33.000 301.101 167.102  M -25 0 L -5 0 L -5 20 L -25 20 Z M 405 0 L 425 0 L 425 20 L 405 20 Z" stroke="none" fill="#f4f4f4" fill-rule="evenodd" transform="translate(30,0)"></path><path id="path1" d="M100.269 33.464 C 100.121 33.612,100.000 93.823,100.000 167.267 L 100.000 300.800 133.801 300.800 L 167.601 300.800 167.501 167.100 L 167.400 33.400 133.969 33.298 C 115.582 33.241,100.417 33.316,100.269 33.464 M233.386 33.698 C 233.281 33.974,233.241 94.140,233.298 167.400 L 233.400 300.600 267.101 300.702 L 300.801 300.805 300.701 167.102 L 300.600 33.400 267.088 33.298 C 240.490 33.217,233.537 33.299,233.386 33.698  M -25 0 L -5 0 L -5 20 L -25 20 Z M 405 0 L 425 0 L 425 20 L 405 20 Z" stroke="none" fill="#84dcac" fill-rule="evenodd" transform="translate(490,0)"></path><path id="path2" d="M99.869 33.064 C 99.721 33.212,99.600 93.603,99.600 167.267 L 99.600 301.200 133.801 301.200 L 168.001 301.200 167.901 167.100 L 167.800 33.000 133.969 32.898 C 115.362 32.842,100.017 32.917,99.869 33.064 M233.250 33.339 C 232.917 33.742,232.825 68.712,232.899 167.442 L 233.000 301.000 267.101 301.102 L 301.201 301.204 301.101 167.102 L 301.000 33.000 267.351 32.898 C 239.376 32.813,233.626 32.887,233.250 33.339 M167.501 167.100 L 167.601 300.800 133.801 300.800 L 100.000 300.800 100.000 167.267 C 100.000 93.823,100.121 33.612,100.269 33.464 C 100.417 33.316,115.582 33.241,133.969 33.298 L 167.400 33.400 167.501 167.100 M300.701 167.102 L 300.801 300.805 267.101 300.702 L 233.400 300.600 233.298 167.400 C 233.241 94.140,233.281 33.974,233.386 33.698 C 233.537 33.299,240.490 33.217,267.088 33.298 L 300.600 33.400 300.701 167.102  M -25 0 L -5 0 L -5 20 L -25 20 Z M 405 0 L 425 0 L 425 20 L 405 20 Z" stroke="none" fill="#d8e8f8" fill-rule="evenodd" transform="translate(950,0)"></path><path id="path3" d="M99.869 33.064 C 99.721 33.212,99.600 93.603,99.600 167.267 L 99.600 301.200 133.801 301.200 L 168.001 301.200 167.901 167.100 L 167.800 33.000 133.969 32.898 C 115.362 32.842,100.017 32.917,99.869 33.064 M233.250 33.339 C 232.917 33.742,232.825 68.712,232.899 167.442 L 233.000 301.000 267.101 301.102 L 301.201 301.204 301.101 167.102 L 301.000 33.000 267.351 32.898 C 239.376 32.813,233.626 32.887,233.250 33.339 M167.501 167.100 L 167.601 300.800 133.801 300.800 L 100.000 300.800 100.000 167.267 C 100.000 93.823,100.121 33.612,100.269 33.464 C 100.417 33.316,115.582 33.241,133.969 33.298 L 167.400 33.400 167.501 167.100 M300.701 167.102 L 300.801 300.805 267.101 300.702 L 233.400 300.600 233.298 167.400 C 233.241 94.140,233.281 33.974,233.386 33.698 C 233.537 33.299,240.490 33.217,267.088 33.298 L 300.600 33.400 300.701 167.102  M -25 0 L -5 0 L -5 20 L -25 20 Z M 405 0 L 425 0 L 425 20 L 405 20 Z" stroke="none" fill="#d8e8f8" fill-rule="evenodd" transform="translate(30,460)"></path><path id="path4" d="M99.869 33.064 C 99.721 33.212,99.600 93.603,99.600 167.267 L 99.600 301.200 133.801 301.200 L 168.001 301.200 167.901 167.100 L 167.800 33.000 133.969 32.898 C 115.362 32.842,100.017 32.917,99.869 33.064 M233.250 33.339 C 232.917 33.742,232.825 68.712,232.899 167.442 L 233.000 301.000 267.101 301.102 L 301.201 301.204 301.101 167.102 L 301.000 33.000 267.351 32.898 C 239.376 32.813,233.626 32.887,233.250 33.339 M167.501 167.100 L 167.601 300.800 133.801 300.800 L 100.000 300.800 100.000 167.267 C 100.000 93.823,100.121 33.612,100.269 33.464 C 100.417 33.316,115.582 33.241,133.969 33.298 L 167.400 33.400 167.501 167.100 M300.701 167.102 L 300.801 300.805 267.101 300.702 L 233.400 300.600 233.298 167.400 C 233.241 94.140,233.281 33.974,233.386 33.698 C 233.537 33.299,240.490 33.217,267.088 33.298 L 300.600 33.400 300.701 167.102  M -25 0 L -5 0 L -5 20 L -25 20 Z M 405 0 L 425 0 L 425 20 L 405 20 Z" stroke="none" fill="#d8e8f8" fill-rule="evenodd" transform="translate(490,460)"></path></g></svg>