<?xml version="1.0" standalone="no"?>
<!DOCTYPE svg PUBLIC "-//W3C//DTD SVG 20010904//EN"
 "http://www.w3.org/TR/2001/REC-SVG-20010904/DTD/svg10.dtd">
<svg version="1.0" xmlns="http://www.w3.org/2000/svg"
 width="1080.000000pt" height="1080.000000pt" viewBox="0 0 1080.000000 1080.000000"
 preserveAspectRatio="xMidYMid meet">

<g transform="translate(0.000000,1080.000000) scale(0.100000,-0.100000)"
fill="#000000" stroke="none">
<path d="M0 5400 l0 -5400 2595 0 c2069 0 2595 3 2595 13 0 27 -20 557 -30
787 -6 135 -17 416 -25 625 -9 209 -20 479 -25 600 -14 310 -28 655 -45 1125
-8 223 -19 486 -25 585 -6 99 -15 326 -20 505 -12 402 -36 1012 -50 1265 -6
105 -17 368 -25 585 -8 217 -22 559 -30 760 -8 201 -19 489 -25 640 -6 151
-19 491 -30 755 -20 486 -28 692 -55 1475 -22 639 -35 968 -41 1028 l-5 52
-2380 0 -2379 0 0 -5400z m134 2164 c3 -8 2 -12 -4 -9 -6 3 -10 10 -10 16 0
14 7 11 14 -7z m1706 -554 c0 -5 -4 -10 -9 -10 -6 0 -13 5 -16 10 -3 6 1 10 9
10 9 0 16 -4 16 -10z m107 -696 c-3 -3 -12 -4 -19 -1 -8 3 -5 6 6 6 11 1 17
-2 13 -5z m2573 -314 c8 -5 12 -11 10 -14 -3 -2 -14 2 -24 10 -22 15 -10 19
14 4z m-110 -220 c0 -5 -4 -10 -10 -10 -5 0 -10 5 -10 10 0 6 5 10 10 10 6 0
10 -4 10 -10z m-2845 -280 c3 -5 2 -10 -4 -10 -5 0 -13 5 -16 10 -3 6 -2 10 4
10 5 0 13 -4 16 -10z m2885 -20 c0 -5 -2 -10 -4 -10 -3 0 -8 5 -11 10 -3 6 -1
10 4 10 6 0 11 -4 11 -10z m307 -16 c-3 -3 -12 -4 -19 -1 -8 3 -5 6 6 6 11 1
17 -2 13 -5z m-1462 -44 c3 -6 -1 -7 -9 -4 -18 7 -21 14 -7 14 6 0 13 -4 16
-10z m1172 4 c-3 -3 -12 -4 -19 -1 -8 3 -5 6 6 6 11 1 17 -2 13 -5z m-2824
-41 c-7 -2 -19 -2 -25 0 -7 3 -2 5 12 5 14 0 19 -2 13 -5z m3112 -24 c11 -16
1 -19 -13 -3 -7 8 -8 14 -3 14 5 0 13 -5 16 -11z m-1322 -56 c-7 -2 -19 -2
-25 0 -7 3 -2 5 12 5 14 0 19 -2 13 -5z m-126 -89 c-3 -3 -12 -4 -19 -1 -8 3
-5 6 6 6 11 1 17 -2 13 -5z m1398 -72 c-7 -8 -35 7 -35 18 0 6 7 6 20 -2 10
-7 17 -14 15 -16z m155 -2 c0 -5 -2 -10 -4 -10 -3 0 -8 5 -11 10 -3 6 -1 10 4
10 6 0 11 -4 11 -10z m-2630 -150 c0 -5 -2 -10 -4 -10 -3 0 -8 5 -11 10 -3 6
-1 10 4 10 6 0 11 -4 11 -10z m277 -6 c-3 -3 -12 -4 -19 -1 -8 3 -5 6 6 6 11
1 17 -2 13 -5z m358 -4 c3 -5 -1 -10 -10 -10 -9 0 -13 5 -10 10 3 6 8 10 10
10 2 0 7 -4 10 -10z m712 -146 c-3 -3 -12 -4 -19 -1 -8 3 -5 6 6 6 11 1 17 -2
13 -5z m400 -20 c-3 -3 -12 -4 -19 -1 -8 3 -5 6 6 6 11 1 17 -2 13 -5z m-380
-30 c-3 -3 -12 -4 -19 -1 -8 3 -5 6 6 6 11 1 17 -2 13 -5z m1078 -12 c-3 -3
-11 0 -18 7 -9 10 -8 11 6 5 10 -3 15 -9 12 -12z m205 -2 c0 -5 -2 -10 -4 -10
-3 0 -8 5 -11 10 -3 6 -1 10 4 10 6 0 11 -4 11 -10z m-103 -156 c-3 -3 -12 -4
-19 -1 -8 3 -5 6 6 6 11 1 17 -2 13 -5z m-952 -54 c3 -5 1 -10 -4 -10 -6 0
-11 5 -11 10 0 6 2 10 4 10 3 0 8 -4 11 -10z m838 -97 c-7 -2 -21 -2 -30 0
-10 3 -4 5 12 5 17 0 24 -2 18 -5z m-1956 -55 c-3 -8 -6 -5 -6 6 -1 11 2 17 5
13 3 -3 4 -12 1 -19z m1031 -3 c-3 -3 -9 2 -12 12 -6 14 -5 15 5 6 7 -7 10
-15 7 -18z m822 16 c0 -5 -7 -11 -15 -15 -15 -5 -20 5 -8 17 9 10 23 9 23 -2z
m-925 -51 c3 -5 1 -10 -4 -10 -6 0 -11 5 -11 10 0 6 2 10 4 10 3 0 8 -4 11
-10z m-1978 -32 c-3 -8 -6 -5 -6 6 -1 11 2 17 5 13 3 -3 4 -12 1 -19z m1943
-28 c0 -5 -2 -10 -4 -10 -3 0 -8 5 -11 10 -3 6 -1 10 4 10 6 0 11 -4 11 -10z
m1020 6 c0 -11 -19 -15 -25 -6 -3 5 1 10 9 10 9 0 16 -2 16 -4z m-532 -33
c-10 -2 -26 -2 -35 0 -10 3 -2 5 17 5 19 0 27 -2 18 -5z m-311 -38 c9 -25 -4
-29 -17 -6 -7 15 -7 21 0 21 6 0 13 -7 17 -15z m-2110 -91 c-3 -3 -12 -4 -19
-1 -8 3 -5 6 6 6 11 1 17 -2 13 -5z m1773 -54 c0 -5 -4 -10 -10 -10 -5 0 -10
5 -10 10 0 6 5 10 10 10 6 0 10 -4 10 -10z m597 -26 c-3 -3 -12 -4 -19 -1 -8
3 -5 6 6 6 11 1 17 -2 13 -5z m-248 -157 c1 -5 -3 -5 -9 -2 -5 3 -10 16 -9 28
0 21 1 21 9 2 5 -11 9 -24 9 -28z m1104 6 c-7 -2 -19 -2 -25 0 -7 3 -2 5 12 5
14 0 19 -2 13 -5z m-2006 -85 c-3 -8 -6 -5 -6 6 -1 11 2 17 5 13 3 -3 4 -12 1
-19z m-1130 -4 c-3 -3 -12 -4 -19 -1 -8 3 -5 6 6 6 11 1 17 -2 13 -5z m223
-14 c18 -12 2 -12 -25 0 -13 6 -15 9 -5 9 8 0 22 -4 30 -9z m2050 -21 c0 -6
-4 -7 -10 -4 -5 3 -10 11 -10 16 0 6 5 7 10 4 6 -3 10 -11 10 -16z m-105 -29
c3 -5 1 -10 -4 -10 -6 0 -11 5 -11 10 0 6 2 10 4 10 3 0 8 -4 11 -10z m-85
-60 c0 -5 -2 -10 -4 -10 -3 0 -8 5 -11 10 -3 6 -1 10 4 10 6 0 11 -4 11 -10z
m477 -16 c-3 -3 -12 -4 -19 -1 -8 3 -5 6 6 6 11 1 17 -2 13 -5z m130 -10 c-3
-3 -12 -4 -19 -1 -8 3 -5 6 6 6 11 1 17 -2 13 -5z m-1077 -69 c0 -5 -5 -3 -10
5 -5 8 -10 20 -10 25 0 6 5 3 10 -5 5 -8 10 -19 10 -25z m-1635 -45 c3 -5 -3
-10 -15 -10 -12 0 -18 5 -15 10 3 6 10 10 15 10 5 0 12 -4 15 -10z m1220 -20
c8 -13 -5 -13 -25 0 -13 8 -13 10 2 10 9 0 20 -4 23 -10z m1472 -26 c-3 -3
-12 -4 -19 -1 -8 3 -5 6 6 6 11 1 17 -2 13 -5z m-2227 -24 c0 -5 -8 -10 -17
-10 -15 0 -16 2 -3 10 19 12 20 12 20 0z m2667 4 c-3 -3 -12 -4 -19 -1 -8 3
-5 6 6 6 11 1 17 -2 13 -5z m-3302 -34 c3 -5 1 -10 -4 -10 -6 0 -11 5 -11 10
0 6 2 10 4 10 3 0 8 -4 11 -10z m1072 -6 c-3 -3 -12 -4 -19 -1 -8 3 -5 6 6 6
11 1 17 -2 13 -5z m216 -121 c-7 -2 -19 -2 -25 0 -7 3 -2 5 12 5 14 0 19 -2
13 -5z m2080 0 c-7 -2 -19 -2 -25 0 -7 3 -2 5 12 5 14 0 19 -2 13 -5z m-409
-78 c4 -10 -1 -15 -15 -15 -17 0 -18 2 -7 15 16 18 15 18 22 0z m-201 -2 c-7
-2 -19 -2 -25 0 -7 3 -2 5 12 5 14 0 19 -2 13 -5z m-2456 -19 c-3 -3 -12 -4
-19 -1 -8 3 -5 6 6 6 11 1 17 -2 13 -5z m50 -10 c-3 -3 -12 -4 -19 -1 -8 3 -5
6 6 6 11 1 17 -2 13 -5z m1658 -34 c3 -5 2 -10 -4 -10 -5 0 -13 5 -16 10 -3 6
-2 10 4 10 5 0 13 -4 16 -10z m-735 -64 c0 -3 -4 -8 -10 -11 -5 -3 -10 -1 -10
4 0 6 5 11 10 11 6 0 10 -2 10 -4z m1577 -42 c-3 -3 -12 -4 -19 -1 -8 3 -5 6
6 6 11 1 17 -2 13 -5z m-2260 -30 c-3 -3 -12 -4 -19 -1 -8 3 -5 6 6 6 11 1 17
-2 13 -5z m-610 -20 c-3 -3 -12 -4 -19 -1 -8 3 -5 6 6 6 11 1 17 -2 13 -5z
m1696 -141 c-7 -2 -19 -2 -25 0 -7 3 -2 5 12 5 14 0 19 -2 13 -5z m194 -69
c-3 -3 -12 -4 -19 -1 -8 3 -5 6 6 6 11 1 17 -2 13 -5z m1018 -4 c3 -5 1 -10
-4 -10 -6 0 -11 5 -11 10 0 6 2 10 4 10 3 0 8 -4 11 -10z m-1340 -38 c-3 -3
-11 0 -18 7 -9 10 -8 11 6 5 10 -3 15 -9 12 -12z m-84 -100 c-7 -2 -18 1 -23
6 -8 8 -4 9 13 5 13 -4 18 -8 10 -11z m99 -2 c0 -5 -7 -7 -15 -4 -8 4 -15 8
-15 10 0 2 7 4 15 4 8 0 15 -4 15 -10z m-135 -100 c3 -5 1 -10 -4 -10 -6 0
-11 5 -11 10 0 6 2 10 4 10 3 0 8 -4 11 -10z m-100 -100 c3 -5 -1 -10 -10 -10
-9 0 -13 5 -10 10 3 6 8 10 10 10 2 0 7 -4 10 -10z m812 -46 c-3 -3 -12 -4
-19 -1 -8 3 -5 6 6 6 11 1 17 -2 13 -5z m-830 -10 c-3 -3 -12 -4 -19 -1 -8 3
-5 6 6 6 11 1 17 -2 13 -5z m806 -34 c3 -11 1 -18 -4 -14 -5 3 -9 12 -9 20 0
20 7 17 13 -6z m1032 -10 c3 -5 1 -10 -4 -10 -6 0 -11 5 -11 10 0 6 2 10 4 10
3 0 8 -4 11 -10z m-2818 -16 c-3 -3 -12 -4 -19 -1 -8 3 -5 6 6 6 11 1 17 -2
13 -5z m990 0 c-3 -3 -12 -4 -19 -1 -8 3 -5 6 6 6 11 1 17 -2 13 -5z m-711
-71 c-7 -7 -26 7 -26 19 0 6 6 6 15 -2 9 -7 13 -15 11 -17z m1089 7 c3 -5 1
-10 -4 -10 -6 0 -11 5 -11 10 0 6 2 10 4 10 3 0 8 -4 11 -10z m225 -23 c0 -5
-4 -5 -10 -2 -5 3 -10 14 -10 23 0 15 2 15 10 2 5 -8 10 -19 10 -23z m-62 -2
c-3 -3 -9 2 -12 12 -6 14 -5 15 5 6 7 -7 10 -15 7 -18z m-1951 -61 c-3 -3 -12
-4 -19 -1 -8 3 -5 6 6 6 11 1 17 -2 13 -5z m1560 -20 c-3 -3 -12 -4 -19 -1 -8
3 -5 6 6 6 11 1 17 -2 13 -5z m643 -34 c0 -5 -2 -10 -4 -10 -3 0 -8 5 -11 10
-3 6 -1 10 4 10 6 0 11 -4 11 -10z m-930 -10 c0 -5 -2 -10 -4 -10 -3 0 -8 5
-11 10 -3 6 -1 10 4 10 6 0 11 -4 11 -10z m1160 -11 c0 -6 -4 -7 -10 -4 -5 3
-10 11 -10 16 0 6 5 7 10 4 6 -3 10 -11 10 -16z m-487 -16 c-7 -2 -19 -2 -25
0 -7 3 -2 5 12 5 14 0 19 -2 13 -5z m382 -31 c-8 -8 -25 10 -25 26 0 13 2 13
14 -4 8 -10 13 -21 11 -22z m-1088 12 c-3 -3 -12 -4 -19 -1 -8 3 -5 6 6 6 11
1 17 -2 13 -5z m1048 -4 c-3 -5 -11 -10 -16 -10 -6 0 -7 5 -4 10 3 6 11 10 16
10 6 0 7 -4 4 -10z m-492 -27 c-7 -2 -19 -2 -25 0 -7 3 -2 5 12 5 14 0 19 -2
13 -5z m102 -11 c-3 -3 -11 0 -18 7 -9 10 -8 11 6 5 10 -3 15 -9 12 -12z m188
1 c-7 -2 -21 -2 -30 0 -10 3 -4 5 12 5 17 0 24 -2 18 -5z m-110 -50 c-7 -2
-21 -2 -30 0 -10 3 -4 5 12 5 17 0 24 -2 18 -5z m-9 -48 c3 -8 1 -15 -3 -15
-5 0 -11 7 -15 15 -3 8 -1 15 3 15 5 0 11 -7 15 -15z m-1244 -115 c0 -5 -2
-10 -4 -10 -3 0 -8 5 -11 10 -3 6 -1 10 4 10 6 0 11 -4 11 -10z m1115 -48 c-3
-3 -11 0 -18 7 -9 10 -8 11 6 5 10 -3 15 -9 12 -12z m1022 2 c-3 -3 -12 -4
-19 -1 -8 3 -5 6 6 6 11 1 17 -2 13 -5z m-1090 -110 c-3 -3 -12 -4 -19 -1 -8
3 -5 6 6 6 11 1 17 -2 13 -5z m-464 -31 c-7 -2 -19 -2 -25 0 -7 3 -2 5 12 5
14 0 19 -2 13 -5z m2162 -53 c3 -5 1 -10 -4 -10 -6 0 -11 5 -11 10 0 6 2 10 4
10 3 0 8 -4 11 -10z m-1078 -6 c-3 -3 -12 -4 -19 -1 -8 3 -5 6 6 6 11 1 17 -2
13 -5z m-1470 -90 c-3 -3 -12 -4 -19 -1 -8 3 -5 6 6 6 11 1 17 -2 13 -5z
m1527 -23 c4 -5 -3 -7 -14 -4 -23 6 -26 13 -6 13 8 0 17 -4 20 -9z m-1360
-146 c3 -8 1 -15 -4 -15 -6 0 -10 7 -10 15 0 8 2 15 4 15 2 0 6 -7 10 -15z
m1361 -75 c3 -5 1 -10 -4 -10 -6 0 -11 5 -11 10 0 6 2 10 4 10 3 0 8 -4 11
-10z m392 -16 c-3 -3 -12 -4 -19 -1 -8 3 -5 6 6 6 11 1 17 -2 13 -5z m73 -60
c0 -2 -7 -4 -15 -4 -8 0 -15 4 -15 10 0 5 7 7 15 4 8 -4 15 -8 15 -10z m-225
-44 c3 -6 -1 -7 -9 -4 -18 7 -21 14 -7 14 6 0 13 -4 16 -10z m-1370 -50 c3 -5
1 -10 -4 -10 -6 0 -11 5 -11 10 0 6 2 10 4 10 3 0 8 -4 11 -10z m1512 -16 c-3
-3 -12 -4 -19 -1 -8 3 -5 6 6 6 11 1 17 -2 13 -5z m-1750 -30 c-3 -3 -12 -4
-19 -1 -8 3 -5 6 6 6 11 1 17 -2 13 -5z m263 -64 c0 -5 -2 -10 -4 -10 -3 0 -8
5 -11 10 -3 6 -1 10 4 10 6 0 11 -4 11 -10z m245 -70 c3 -5 -1 -10 -9 -10 -9
0 -16 5 -16 10 0 6 4 10 9 10 6 0 13 -4 16 -10z m610 -28 c-8 -8 -25 10 -25
26 0 13 2 13 14 -4 8 -10 13 -21 11 -22z m-621 -17 c3 -8 1 -15 -4 -15 -6 0
-10 7 -10 15 0 8 2 15 4 15 2 0 6 -7 10 -15z m-164 -5 c0 -5 -2 -10 -4 -10 -3
0 -8 5 -11 10 -3 6 -1 10 4 10 6 0 11 -4 11 -10z m914 -645 c3 -8 1 -15 -4
-15 -6 0 -10 7 -10 15 0 8 2 15 4 15 2 0 6 -7 10 -15z"/>
<path d="M9574 10703 c3 -54 11 -204 17 -333 6 -129 15 -266 20 -305 5 -38 16
-158 24 -265 8 -107 23 -262 34 -345 11 -82 25 -206 31 -275 6 -69 15 -152 20
-185 5 -33 16 -139 25 -235 9 -96 23 -231 30 -300 8 -69 19 -197 25 -285 6
-88 15 -194 20 -235 5 -41 14 -140 20 -220 6 -80 15 -167 20 -195 5 -27 14
-99 20 -160 6 -60 15 -143 20 -183 6 -41 7 -78 4 -83 -3 -6 0 -32 7 -60 10
-36 24 -59 55 -88 39 -35 42 -42 49 -108 11 -110 26 -112 19 -3 l-6 95 48 26
c45 25 234 69 292 69 12 0 22 4 22 9 0 5 57 14 128 20 270 25 299 30 137 25
-84 -2 -198 -13 -260 -24 -206 -37 -300 -58 -333 -75 -18 -10 -35 -15 -38 -13
-2 3 -8 49 -14 104 -25 238 -41 377 -55 494 -26 209 -45 402 -45 467 0 34 -4
95 -10 135 -19 138 -40 323 -50 448 -21 240 -28 326 -39 440 -35 384 -64 867
-77 1275 -3 105 -7 213 -9 240 -2 28 -3 89 -4 138 l-1 87 -76 0 -76 0 6 -97z"/>
<path d="M9430 7811 c0 -6 4 -13 10 -16 6 -3 7 1 4 9 -7 18 -14 21 -14 7z"/>
<path d="M9530 7654 c41 -71 50 -83 50 -68 0 11 -78 134 -85 134 -2 0 14 -30
35 -66z"/>
<path d="M9681 7423 c13 -16 27 -32 31 -37 5 -6 8 -6 8 1 0 12 -45 63 -56 63
-4 0 3 -12 17 -27z"/>
<path d="M9561 7186 c2 -2 15 -9 29 -15 24 -11 24 -11 6 3 -16 13 -49 24 -35
12z"/>
<path d="M10671 6348 c-39 -60 -80 -164 -60 -153 5 4 9 10 9 16 0 5 10 20 22
34 12 14 27 40 33 57 7 18 16 41 20 51 10 25 -8 21 -24 -5z"/>
<path d="M10120 6128 c-96 -4 -206 -15 -245 -23 -38 -8 -122 -24 -185 -36
-226 -41 -257 -47 -310 -62 -30 -9 -77 -18 -105 -22 -27 -4 -63 -15 -80 -25
-16 -10 -52 -24 -80 -30 -27 -7 -59 -18 -71 -25 -11 -7 -44 -20 -72 -29 -29
-8 -65 -21 -80 -29 -36 -20 -121 -54 -152 -63 -14 -4 -43 -21 -65 -39 -22 -17
-74 -48 -115 -69 -75 -37 -116 -63 -223 -143 -60 -44 -97 -55 -97 -29 0 8 -11
28 -25 43 -29 32 -25 12 8 -45 20 -33 20 -33 -2 -62 -33 -45 -23 -56 19 -20
17 15 26 17 37 9 24 -20 14 -48 -34 -96 -57 -57 -83 -89 -83 -103 0 -6 17 -10
38 -10 20 -1 80 -4 132 -9 86 -7 101 -11 152 -44 31 -20 59 -41 62 -46 3 -5
29 -21 58 -36 29 -15 62 -36 74 -46 11 -10 40 -25 65 -33 24 -8 69 -24 99 -35
30 -12 62 -21 70 -21 8 0 29 -7 45 -16 17 -9 50 -19 75 -24 46 -8 163 -39 260
-68 30 -9 78 -17 105 -18 28 -2 73 -9 102 -18 80 -23 466 -56 653 -56 120 0
147 -7 137 -34 -7 -19 -56 -21 -342 -18 -235 3 -375 16 -510 46 -60 14 -162
36 -225 50 -208 47 -412 116 -561 190 -50 26 -94 45 -96 42 -2 -2 7 -21 22
-41 14 -21 25 -33 25 -26 0 17 12 14 92 -23 71 -33 163 -68 283 -107 32 -11
62 -23 65 -27 3 -4 28 -12 55 -18 28 -6 142 -32 255 -57 247 -55 360 -66 702
-67 171 0 176 -1 171 -20 -3 -11 -9 -20 -13 -20 -4 0 -11 -10 -17 -22 -6 -13
-33 -49 -59 -80 -27 -31 -68 -83 -92 -115 -24 -32 -59 -79 -78 -104 l-34 -46
-77 -7 c-203 -17 -433 7 -683 71 -63 17 -160 40 -215 52 -55 13 -120 29 -144
37 -25 8 -56 14 -70 14 -28 0 -139 33 -171 50 -12 7 -21 7 -25 0 -3 -5 -4 -10
-2 -10 2 0 37 -12 77 -26 41 -14 88 -26 104 -26 17 0 58 -8 91 -18 33 -10 76
-22 95 -25 19 -4 49 -11 65 -16 53 -16 317 -77 405 -93 134 -26 245 -36 384
-36 110 0 127 -2 122 -15 -5 -15 -72 -105 -384 -518 -214 -284 -204 -271 -296
-387 -45 -58 -131 -168 -190 -245 -198 -260 -245 -320 -296 -385 -69 -87 -189
-247 -219 -290 -13 -19 -45 -58 -71 -87 -74 -81 -190 -240 -190 -261 0 -46
116 -142 171 -142 32 0 102 22 114 36 20 24 132 170 198 258 37 50 73 98 80
106 7 8 43 56 80 105 78 102 72 95 152 195 33 41 81 102 105 134 87 116 199
262 247 323 26 34 104 135 172 224 68 89 130 169 137 178 8 9 24 30 36 47 13
18 52 69 88 115 93 119 123 156 250 324 63 83 143 185 177 228 72 90 37 79
283 91 242 13 270 17 270 35 0 16 -11 16 -148 5 -130 -11 -282 -18 -305 -15
-7 1 87 128 157 212 17 20 41 48 52 62 12 14 41 53 65 86 31 43 53 62 74 67
17 3 47 13 68 21 31 13 37 20 37 44 0 29 -22 41 -35 19 -7 -12 -25 -13 -25 -2
0 4 14 22 30 41 l30 34 0 411 c0 374 -2 417 -19 478 -11 36 -17 69 -13 72 3 3
-1 6 -9 6 -12 0 -49 33 -49 44 0 2 20 1 45 -2 l45 -5 0 55 0 55 -47 6 c-27 3
-79 10 -118 16 -38 5 -142 13 -230 16 -88 4 -163 9 -168 12 -10 6 -225 6 -235
-1 -4 -2 -53 -8 -108 -11 -54 -4 -103 -11 -108 -16 -13 -12 -46 -12 -46 1 0 6
-7 10 -15 10 -8 0 -15 -7 -15 -15 0 -9 -9 -15 -22 -15 -57 0 -359 -80 -422
-112 -21 -11 -47 -17 -57 -15 -11 3 -22 1 -25 -4 -3 -5 -14 -9 -25 -9 -13 0
-18 -4 -13 -12 4 -7 3 -8 -4 -4 -6 4 -33 -3 -59 -14 -26 -12 -59 -26 -73 -32
-57 -24 -96 -41 -112 -49 -10 -5 -25 -9 -33 -9 -23 0 -207 -92 -310 -155 -49
-30 -99 -59 -110 -64 -11 -5 -31 -21 -44 -35 -14 -14 -33 -26 -43 -26 -10 0
-18 -7 -18 -15 0 -8 -6 -15 -14 -15 -16 0 -46 26 -46 40 0 10 65 60 79 60 5 0
14 6 18 14 8 14 147 92 243 136 25 12 54 30 65 40 11 10 45 30 75 45 30 15 67
33 81 41 92 48 275 117 395 147 248 62 250 62 269 43 20 -20 41 -16 37 8 -2
11 5 16 25 17 36 2 44 3 68 12 11 4 56 14 100 22 260 51 497 70 508 43 4 -9 6
-10 6 -1 1 16 276 8 494 -13 52 -5 57 -4 57 14 0 17 -10 20 -82 27 -46 5 -86
8 -91 7 -4 -1 -47 2 -95 8 -139 15 -225 17 -412 8z m-724 -305 c-22 -73 -46
-239 -47 -316 -1 -180 56 -453 110 -527 10 -14 26 -42 35 -62 16 -34 16 -39 3
-53 -21 -21 -43 -19 -171 11 -320 77 -453 121 -621 208 -115 59 -158 87 -213
136 -18 17 -39 30 -46 30 -8 0 -19 6 -25 14 -9 10 -22 11 -57 5 -29 -6 -53 -5
-65 1 -26 14 -24 30 4 30 12 0 48 21 80 48 128 104 208 162 222 162 7 0 39 17
71 38 33 21 73 42 89 46 17 4 62 22 100 40 153 74 274 125 355 151 47 15 94
31 105 35 60 25 78 25 71 3z m-900 -3755 c21 -24 22 -31 10 -60 -11 -24 -16
-23 -65 12 l-41 30 21 30 c24 32 38 30 75 -12z"/>
<path d="M8483 2025 c0 -8 4 -12 9 -9 4 3 8 9 8 15 0 5 -4 9 -8 9 -5 0 -9 -7
-9 -15z"/>
<path d="M8582 4905 c0 -16 4 -43 8 -60 7 -29 8 -28 8 10 0 22 -3 49 -8 60 -7
17 -9 15 -8 -10z"/>
<path d="M8110 4680 c0 -6 7 -10 15 -10 8 0 15 2 15 4 0 2 -7 6 -15 10 -8 3
-15 1 -15 -4z"/>
<path d="M8140 4656 c0 -2 7 -7 16 -10 8 -3 12 -2 9 4 -6 10 -25 14 -25 6z"/>
<path d="M8181 4627 c28 -21 59 -36 59 -29 0 5 -11 14 -25 20 -24 11 -44 16
-34 9z"/>
<path d="M8280 4575 c14 -8 30 -14 35 -14 6 0 -1 6 -15 14 -14 8 -29 14 -35
14 -5 0 1 -6 15 -14z"/>
<path d="M8320 4546 c0 -2 9 -6 20 -9 11 -3 18 -1 14 4 -5 9 -34 13 -34 5z"/>
</g>
</svg>
